<svg width="44" height="42" viewBox="0 0 44 42" fill="none" xmlns="http://www.w3.org/2000/svg">
<g filter="url(#filter0_d_119_1844)">
<path d="M11.1952 35.36C9.32849 35.36 7.76849 34.96 6.51516 34.16C5.28849 33.36 4.35516 32.2533 3.71516 30.84C3.07516 29.4267 2.70182 27.7867 2.59516 25.92L6.59516 24.84C6.67516 25.9867 6.84849 27.0933 7.11516 28.16C7.40849 29.2267 7.87516 30.1067 8.51516 30.8C9.15516 31.4667 10.0485 31.8 11.1952 31.8C12.3685 31.8 13.2485 31.48 13.8352 30.84C14.4485 30.1733 14.7552 29.2267 14.7552 28C14.7552 26.5333 14.4218 25.36 13.7552 24.48C13.0885 23.5733 12.2485 22.6667 11.2352 21.76L5.79516 16.96C4.72849 16.0267 3.94182 15.0133 3.43516 13.92C2.92849 12.8 2.67516 11.4267 2.67516 9.8C2.67516 7.42666 3.35516 5.58667 4.71516 4.28C6.07516 2.97333 7.92849 2.32 10.2752 2.32C11.5552 2.32 12.6752 2.49333 13.6352 2.84C14.6218 3.16 15.4352 3.66666 16.0752 4.36C16.7418 5.05333 17.2618 5.93333 17.6352 7C18.0352 8.04 18.3018 9.26667 18.4352 10.68L14.5952 11.72C14.5152 10.6533 14.3552 9.68 14.1152 8.8C13.8752 7.89333 13.4485 7.17333 12.8352 6.64C12.2485 6.08 11.3952 5.8 10.2752 5.8C9.15516 5.8 8.27516 6.10667 7.63516 6.72C7.02182 7.30666 6.71516 8.18666 6.71516 9.36C6.71516 10.3467 6.87516 11.16 7.19516 11.8C7.54182 12.44 8.08849 13.0933 8.83516 13.76L14.3152 18.56C15.5418 19.6267 16.6218 20.9067 17.5552 22.4C18.4885 23.8667 18.9552 25.6133 18.9552 27.64C18.9552 29.24 18.6218 30.6267 17.9552 31.8C17.2885 32.9467 16.3685 33.8267 15.1952 34.44C14.0485 35.0533 12.7152 35.36 11.1952 35.36ZM29.6614 35.32C27.7147 35.32 26.1681 34.9467 25.0214 34.2C23.8747 33.4533 23.0481 32.3733 22.5414 30.96C22.0614 29.5467 21.8214 27.8667 21.8214 25.92H26.1014C26.1014 26.88 26.1814 27.8267 26.3414 28.76C26.5014 29.6667 26.8347 30.4267 27.3414 31.04C27.8747 31.6267 28.6747 31.92 29.7414 31.92C30.9147 31.92 31.7547 31.5867 32.2614 30.92C32.7681 30.2267 33.0881 29.3067 33.2214 28.16C33.3547 26.9867 33.4214 25.6667 33.4214 24.2C33.4214 22.7333 33.3414 21.4933 33.1814 20.48C33.0214 19.44 32.6881 18.6533 32.1814 18.12C31.6747 17.56 30.8747 17.28 29.7814 17.28C28.9014 17.28 28.1547 17.56 27.5414 18.12C26.9281 18.6533 26.4747 19.2667 26.1814 19.96H22.5414V2.6H36.5014V6.88H26.4214L26.1414 15.84C26.6747 15.28 27.3281 14.84 28.1014 14.52C28.9014 14.2 29.8081 14.04 30.8214 14.04C32.5814 14.04 33.9547 14.4533 34.9414 15.28C35.9547 16.1067 36.6614 17.24 37.0614 18.68C37.4881 20.12 37.7014 21.7733 37.7014 23.64C37.7014 25.2933 37.5814 26.84 37.3414 28.28C37.1014 29.6933 36.6747 30.9333 36.0614 32C35.4747 33.04 34.6614 33.8533 33.6214 34.44C32.5814 35.0267 31.2614 35.32 29.6614 35.32Z" fill="#D8D8D8"/>
</g>
<defs>
<filter id="filter0_d_119_1844" x="0.595215" y="0.32" width="43.1062" height="41.04" filterUnits="userSpaceOnUse" color-interpolation-filters="sRGB">
<feFlood flood-opacity="0" result="BackgroundImageFix"/>
<feColorMatrix in="SourceAlpha" type="matrix" values="0 0 0 0 0 0 0 0 0 0 0 0 0 0 0 0 0 0 127 0" result="hardAlpha"/>
<feOffset dx="2" dy="2"/>
<feGaussianBlur stdDeviation="2"/>
<feComposite in2="hardAlpha" operator="out"/>
<feColorMatrix type="matrix" values="0 0 0 0 0 0 0 0 0 0 0 0 0 0 0 0 0 0 0.25 0"/>
<feBlend mode="normal" in2="BackgroundImageFix" result="effect1_dropShadow_119_1844"/>
<feBlend mode="normal" in="SourceGraphic" in2="effect1_dropShadow_119_1844" result="shape"/>
</filter>
</defs>
</svg>
